<svg xmlns="http://www.w3.org/2000/svg" width="150" height="150" viewBox="0 0 150 150">
  <defs>
    <linearGradient id="bg" x1="0%" y1="0%" x2="100%" y2="100%">
      <stop offset="0%" style="stop-color:#EC4899;stop-opacity:1" />
      <stop offset="100%" style="stop-color:#BE185D;stop-opacity:1" />
    </linearGradient>
  </defs>
  <circle cx="75" cy="75" r="75" fill="url(#bg)"/>
  <!-- Face -->
  <circle cx="75" cy="65" r="35" fill="#FBBF24"/>
  <!-- Eyes -->
  <circle cx="65" cy="58" r="3" fill="#1F2937"/>
  <circle cx="85" cy="58" r="3" fill="#1F2937"/>
  <!-- Eyelashes -->
  <path d="M 62 55 L 68 54" stroke="#1F2937" stroke-width="1"/>
  <path d="M 82 54 L 88 55" stroke="#1F2937" stroke-width="1"/>
  <!-- Nose -->
  <ellipse cx="75" cy="68" rx="2" ry="3" fill="#F59E0B"/>
  <!-- Mouth -->
  <path d="M 68 75 Q 75 82 82 75" stroke="#DC2626" stroke-width="2" fill="none"/>
  <!-- Hair -->
  <path d="M 40 45 Q 75 30 110 45 Q 105 40 75 35 Q 45 40 40 45" fill="#92400E"/>
  <path d="M 40 50 Q 50 60 60 55 Q 55 65 45 60" fill="#92400E"/>
  <path d="M 110 50 Q 100 60 90 55 Q 95 65 105 60" fill="#92400E"/>
  <!-- Initial -->
  <text x="75" y="125" text-anchor="middle" font-family="Arial, sans-serif" font-size="24" font-weight="bold" fill="white">L</text>
</svg>