<svg xmlns="http://www.w3.org/2000/svg" width="150" height="150" viewBox="0 0 150 150">
  <defs>
    <linearGradient id="bg" x1="0%" y1="0%" x2="100%" y2="100%">
      <stop offset="0%" style="stop-color:#059669;stop-opacity:1" />
      <stop offset="100%" style="stop-color:#047857;stop-opacity:1" />
    </linearGradient>
  </defs>
  <circle cx="75" cy="75" r="75" fill="url(#bg)"/>
  <!-- Face -->
  <circle cx="75" cy="65" r="35" fill="#FBBF24"/>
  <!-- Eyes -->
  <circle cx="65" cy="58" r="3" fill="#1F2937"/>
  <circle cx="85" cy="58" r="3" fill="#1F2937"/>
  <!-- Glasses -->
  <circle cx="65" cy="58" r="8" fill="none" stroke="#374151" stroke-width="2"/>
  <circle cx="85" cy="58" r="8" fill="none" stroke="#374151" stroke-width="2"/>
  <path d="M 73 58 L 77 58" stroke="#374151" stroke-width="2"/>
  <!-- Nose -->
  <ellipse cx="75" cy="68" rx="2" ry="3" fill="#F59E0B"/>
  <!-- Mouth -->
  <path d="M 68 75 Q 75 82 82 75" stroke="#1F2937" stroke-width="2" fill="none"/>
  <!-- Hair -->
  <path d="M 45 50 Q 75 35 105 50 Q 100 45 75 40 Q 50 45 45 50" fill="#1F2937"/>
  <!-- Beard -->
  <path d="M 55 75 Q 75 85 95 75 Q 90 90 75 88 Q 60 90 55 75" fill="#1F2937"/>
  <!-- Initial -->
  <text x="75" y="125" text-anchor="middle" font-family="Arial, sans-serif" font-size="24" font-weight="bold" fill="white">M</text>
</svg>